PathFileType	4	(X/Y/Z)	C:/Users/rsk02/Documents/GitHub/TechForParalysis/Code/Model/04122019 - Marker Volunteer01/Rosti Data/New Session 109.trc	
DataRate	CameraRate	NumFrames	NumMarkers	Units	OrigDataRate	OrigDataStartFrame	OrigNumFrames	
100.00	100.00	9	14	mm	100.00	571	1141	
Frame#	Time	C7			PX			T8			IJ			SC			AC			AI			TS			AA			GH			LE			ME			US			RS			
		X1	Y1	Z1	X2	Y2	Z2	X3	Y3	Z3	X4	Y4	Z4	X5	Y5	Z5	X6	Y6	Z6	X7	Y7	Z7	X8	Y8	Z8	X9	Y9	Z9	X10	Y10	Z10	X11	Y11	Z11	X12	Y12	Z12	X13	Y13	Z13	X14	Y14	Z14	

571	5.700	665.31567	-12.31126	1545.72668	461.23901	-29.08128	1275.96936	756.26349	0.70125	1340.48071	511.80368	-36.97880	1424.07837	513.78857	-12.98424	1434.24316	568.81451	111.91779	1513.66675	703.04163	79.17377	1481.78723	734.87885	90.23589	1364.66211	620.23700	187.17516	1481.08496	580.32343	179.06644	1502.90552	343.49261	265.19086	1363.03735	337.81375	206.14319	1288.75598	69.94971	187.18456	1363.28809	83.64117	172.68994	1438.36389 
572	5.710	665.51642	-11.85742	1545.67883	461.59485	-28.96559	1275.92651	756.37256	1.18380	1340.50342	512.04895	-36.84567	1424.14539	513.96466	-13.06339	1434.26965	568.42603	111.56000	1514.07300	702.73187	80.11029	1481.96680	734.32880	91.07349	1364.89197	618.85034	187.56500	1481.75073	579.14386	178.64478	1503.77954	338.94302	262.09903	1368.50159	333.16391	203.32483	1294.54065	64.02015	187.42702	1366.86780	77.11049	172.03664	1441.92224 
573	5.720	665.71552	-11.38206	1545.63977	461.89960	-28.84970	1275.90479	756.47321	1.67484	1340.53601	512.25250	-36.75206	1424.20642	514.13837	-13.12256	1434.32117	568.02496	111.22903	1514.50513	702.35327	80.96252	1482.11316	733.74347	91.89759	1365.11963	617.44922	187.93773	1482.38477	577.96393	178.19293	1504.60217	334.58087	258.84802	1374.03625	328.66092	200.39430	1300.25415	58.40799	187.97153	1370.31152	70.79190	171.40540	1445.26794 
574	5.730	665.91187	-10.88907	1545.60254	462.15042	-28.73697	1275.90405	756.56482	2.16148	1340.58203	512.42047	-36.70138	1424.28699	514.31122	-13.18856	1434.40039	567.58679	110.90357	1515.03247	701.92633	81.73264	1482.21338	733.11121	92.68456	1365.34766	616.03888	188.28081	1483.01501	576.81543	177.74583	1505.42554	330.40610	255.48480	1379.65234	324.30133	197.35815	1305.86792	53.12188	188.75220	1373.62427	64.68140	170.86131	1448.39197 
575	5.740	666.11670	-10.39329	1545.56128	462.35483	-28.63132	1275.92859	756.65155	2.62898	1340.64050	512.56360	-36.68932	1424.40625	514.49402	-13.28261	1434.48132	567.10413	110.55321	1515.69348	701.45813	82.46648	1482.27063	732.42712	93.42766	1365.57300	614.62537	188.59346	1483.65247	575.69653	177.32916	1506.30933	326.40363	252.08240	1385.30188	320.09570	194.23062	1311.36060	48.13203	189.65448	1376.77563	58.78522	170.44116	1451.29541 
576	5.750	666.33466	-9.91132	1545.51453	462.52902	-28.53675	1275.98328	756.74347	3.06469	1340.70874	512.68469	-36.73977	1424.56445	514.66583	-13.38592	1434.56738	566.59399	110.18655	1516.42773	700.93787	83.20656	1482.29077	731.69818	94.14281	1365.78796	613.19849	188.87390	1484.28015	574.56921	176.91182	1507.24231	322.55078	248.69641	1390.89294	316.05707	191.04091	1316.72156	43.39209	190.54773	1379.71863	53.11439	170.14543	1453.99146 
577	5.760	666.55371	-9.44308	1545.46423	462.69424	-28.45605	1276.06799	756.85022	3.46267	1340.78540	512.78583	-36.88254	1424.74695	514.78967	-13.46407	1434.69958	566.07684	109.85476	1517.10425	700.35730	83.95333	1482.27209	730.93054	94.85633	1365.98547	611.72015	189.11761	1484.87927	573.40094	176.44737	1508.15625	318.83249	245.34641	1396.31763	312.18817	187.82225	1321.95203	38.87852	191.36179	1382.43652	47.66941	169.94000	1456.49805 
578	5.770	666.75085	-8.96059	1545.41504	462.87039	-28.39051	1276.17358	756.97211	3.82413	1340.87097	512.88574	-37.08938	1424.93762	514.86713	-13.51750	1434.88721	565.52374	109.57602	1517.67383	699.70599	84.70489	1482.20520	730.13062	95.57632	1366.17078	610.14728	189.32181	1485.44409	572.17798	175.91881	1508.99500	315.23633	242.04430	1401.48853	308.48090	184.59869	1327.05811	34.58854	192.13695	1384.94971	42.43550	169.77194	1458.84167 
579	5.780	666.91040	-8.42760	1545.37402	463.06900	-28.34202	1276.28760	757.09424	4.15555	1340.96545	513.00519	-37.32788	1425.11572	514.91864	-13.58662	1435.13245	564.87158	109.30915	1518.16980	698.97058	85.49311	1482.10010	729.31207	96.29281	1366.36438	608.45221	189.50684	1485.98840	570.87628	175.34598	1509.75879	311.74829	238.78972	1406.37073	304.92627	181.38278	1332.04016	30.52558	192.99246	1387.30981	37.40098	169.60258	1461.05884 
